<?xml version="1.0" encoding="utf-8"?>
<!-- Generator: Adobe Illustrator 27.5.0, SVG Export Plug-In . SVG Version: 6.00 Build 0)  -->
<svg version="1.1" id="Calque_1" xmlns="http://www.w3.org/2000/svg" xmlns:xlink="http://www.w3.org/1999/xlink" x="0px" y="0px"
	 viewBox="0 0 100 100" style="enable-background:new 0 0 100 100;" xml:space="preserve">
<style type="text/css">
	.st0{fill-rule:evenodd;clip-rule:evenodd;fill:#3AC5EF;}
</style>
<path class="st0" d="M62,45.8H71c4.4,1.4,6.5,5.8,7.5,9.6h-1l-1.8-2.1h-1c-3.4-7.9-13.7-7.9-17,0h-1.5l-1.9,2.1h-0.8
	C54.7,51.6,56.5,47.8,62,45.8L62,45.8z"/>
<path class="st0" d="M41.2,16.6H49v-2.2H26.9c-4,0-7.3,3.3-7.3,7.4v35.6c0,4,3.3,6.7,7.3,7.4c15.7,2.5,31.3,2.6,46.3,0
	c4-0.7,7.3-3.3,7.3-7.4V21.7c0-4-3.3-7.4-7.3-7.4H51l-0.1,2.2h8c2.9,0,2.9,4.7,0,4.7H41.2C38.5,21.3,38.5,16.6,41.2,16.6L41.2,16.6z
	 M5.4,50.2v-4h2.2c0.8,0,1.4-0.7,1.4-1.4V28.1c0-0.7-0.5-1.3-1.4-1.3H5.4v-5.6h5.4v28.9L5.4,50.2z M3.6,46.2V52h7.1v32.1
	c0,6.4,4.9,9.6,10.7,9.6c0,8.5,11.5,8.2,11.5,0h34.2c0,8.5,11.5,8.2,11.5,0c5.6,0,10.6-3.2,10.6-9.6V52h7.1v-5.8h2.2
	c0.7,0,1.4-0.7,1.4-1.4V28.1c0-0.7-0.7-1.3-1.4-1.3h-2.2v-7.4h-7.1v-3.8c0-6.9-9.9-11.4-22.9-13.4V1.1c-0.5,0-1.1-0.4-1.1-1.1H34.9
	c0,0.7-0.5,1.1-1.2,1.1v1.3C20.7,4.4,10.7,8.9,10.7,15.7v3.8H3.6v7.4H1.4c-0.8,0-1.4,0.6-1.4,1.3v16.7c0,0.7,0.5,1.4,1.4,1.4H3.6
	L3.6,46.2z M94.6,50.2v-4h-2.3c-0.7,0-1.2-0.7-1.2-1.4V28.1c0-0.7,0.5-1.3,1.2-1.3h2.3v-5.6h-5.4v28.9L94.6,50.2z M66.1,74v1.4
	c0,0.3,0.1,0.4,0.4,0.4h1.4v8.3h-1.4c-0.1,0-0.4,0.1-0.4,0.4v1.4H33.9v-1.4c0-0.3-0.1-0.4-0.4-0.4h-1.4v-8.3h1.4
	c0.3,0,0.4-0.1,0.4-0.4V74H66.1z M34.9,78.7h30.2v-0.4c-0.5-0.3-1.2-1-1.5-1.5H36.4c-0.3,0.7-0.8,1.1-1.5,1.5V78.7z M65.1,81.1H34.9
	v0.6c0.7,0.3,1.2,0.8,1.5,1.5h27.2c0.4-0.7,1-1.3,1.5-1.5V81.1z M37.5,5.3h25.1c2.8,0,2.8,4.3,0,4.3H37.5
	C34.7,9.6,34.7,5.3,37.5,5.3z M23.2,74c2.9,0,5.2,2.4,5.2,5.3s-2.3,5.1-5.2,5.1s-5.1-2.2-5.1-5.1S20.3,74,23.2,74z M76.8,74
	c2.9,0,5.2,2.4,5.2,5.3s-2.3,5.1-5.2,5.1c-2.8,0-5.1-2.2-5.1-5.1S74,74,76.8,74L76.8,74z"/>
<path class="st0" d="M79.3,56.5v0.1c0,3.9-3.2,6.4-7,7.1C58,66.1,43,66.1,28,63.7c-3.7-0.7-7-3.2-7-7.2h33.8l1.9-2.1h18.5l1.9,2.1
	H79.3z"/>
<path class="st0" d="M73.6,53.3H58.9C61.7,46.9,70.9,46.9,73.6,53.3z"/>
<path class="st0" d="M69.9,38.9c0.1,0.6,0.3,1.1,0.3,1.5c0,2.4-1.8,4.2-4.1,4.2c-2.2,0-4.1-1.8-4.1-4.2c0-0.4,0.1-1,0.3-1.4
	C62.9,41.9,69.2,41.9,69.9,38.9L69.9,38.9z"/>
<path class="st0" d="M66.1,34.1c-1.9,0-5.2,1.8-5.4,2.5c-0.1,0.7,0.4,1,1,1c0.7,0.3,0.7,0,0.7,0.7h0.1c2.3,0.7,4.8,0.7,7.1,0h0.1
	c0-0.7,0-0.4,0.7-0.7c0.5,0,1.1-0.3,1-1C71.4,35.9,68,34.1,66.1,34.1L66.1,34.1z M62,37.6c3.2-1.3,5.1-1.4,8.2,0
	c-0.5,0-0.5,0.3-0.5,0.4c-3.4-1.5-4.3-1.1-7.1,0C62.5,37.7,62.6,37.6,62,37.6L62,37.6z"/>
<path class="st0" d="M62.4,38.7c2.5,0.7,5.1,0.7,7.4,0C69.8,41.6,62.4,41.6,62.4,38.7z"/>
</svg>
